<?xml version="1.0" standalone="no"?>
<!DOCTYPE svg PUBLIC "-//W3C//DTD SVG 20010904//EN"
 "http://www.w3.org/TR/2001/REC-SVG-20010904/DTD/svg10.dtd">
<svg version="1.0" xmlns="http://www.w3.org/2000/svg"
 width="512.000000pt" height="512.000000pt" viewBox="0 0 512.000000 512.000000"
 preserveAspectRatio="xMidYMid meet">

<g transform="translate(0.000000,512.000000) scale(0.100000,-0.100000)"
fill="#000000" stroke="none">
<path d="M1973 4898 c-6 -7 -13 -51 -17 -98 -4 -47 -18 -184 -31 -305 -37
-319 -65 -629 -65 -705 0 -36 -4 -71 -8 -77 -4 -7 -53 -35 -107 -62 -140 -68
-258 -156 -378 -280 -248 -257 -405 -599 -473 -1031 -26 -160 -26 -558 -1
-714 87 -545 321 -915 705 -1114 156 -81 420 -166 632 -204 114 -20 513 -17
670 5 337 47 615 140 788 263 84 61 255 225 348 337 211 250 354 540 398 806
129 771 -268 1621 -897 1920 -171 81 -443 170 -671 219 -100 21 -148 26 -276
26 l-155 1 -74 150 c-40 83 -95 206 -121 275 -26 69 -77 195 -112 280 -36 85
-75 187 -88 225 -23 70 -36 95 -50 95 -4 0 -12 -6 -17 -12z m107 -313 c34 -82
86 -213 115 -290 29 -77 85 -205 124 -285 39 -80 71 -150 71 -157 0 -21 15
-22 61 -6 172 60 823 -108 1137 -293 171 -102 336 -257 467 -439 139 -193 274
-514 325 -770 32 -158 39 -435 15 -576 -57 -344 -261 -696 -577 -994 -178
-168 -339 -256 -578 -318 -276 -72 -669 -105 -900 -76 -203 25 -478 101 -649
180 -429 198 -690 607 -761 1189 -13 108 -13 379 0 495 57 500 279 958 590
1219 88 74 225 158 310 192 66 25 70 29 70 58 1 91 77 901 96 1021 6 33 8 37
15 20 5 -11 36 -87 69 -170z m1943 -3647 c-70 -90 -267 -287 -348 -347 -246
-185 -688 -289 -1175 -279 -235 6 -354 27 -587 103 -222 73 -394 166 -518 279
-44 40 -39 38 35 -17 147 -108 316 -183 565 -252 207 -56 314 -70 545 -69 290
1 543 37 780 110 270 84 439 197 661 442 46 50 85 92 87 92 2 0 -18 -28 -45
-62z"/>
<path d="M2070 2065 c0 -525 3 -665 13 -666 6 0 40 -2 74 -3 l62 -1 3 310 c4
347 10 378 76 455 50 60 104 84 182 85 87 0 146 -31 178 -95 22 -43 22 -51 22
-397 0 -194 3 -353 8 -354 4 0 37 -2 75 -2 l67 -2 0 395 0 395 -24 52 c-47 99
-153 149 -305 141 -104 -5 -152 -27 -228 -101 l-53 -51 0 252 0 252 -75 0 -75
0 0 -665z"/>
<path d="M3080 2635 l0 -95 75 0 75 0 0 95 0 95 -75 0 -75 0 0 -95z"/>
<path d="M3591 2428 c0 -238 5 -348 22 -513 l22 -210 33 -3 c20 -2 34 2 37 10
2 7 13 108 25 225 15 158 20 285 20 502 l0 291 -80 0 -80 0 1 -302z"/>
<path d="M3085 2348 c-3 -7 -4 -224 -3 -482 l3 -470 73 0 72 -1 0 483 0 482
-70 0 c-47 0 -72 -4 -75 -12z"/>
<path d="M3594 1577 c-2 -7 -4 -51 -2 -97 l3 -84 75 0 75 0 0 95 0 94 -73 3
c-54 2 -74 -1 -78 -11z"/>
</g>
</svg>
