<?xml version="1.0" standalone="no"?>
<!DOCTYPE svg PUBLIC "-//W3C//DTD SVG 20010904//EN"
 "http://www.w3.org/TR/2001/REC-SVG-20010904/DTD/svg10.dtd">
<svg version="1.0" xmlns="http://www.w3.org/2000/svg"
 width="446.000000pt" height="355.000000pt" viewBox="0 0 446.000000 355.000000"
 preserveAspectRatio="xMidYMid meet">

<g transform="translate(0.000000,355.000000) scale(0.100000,-0.100000)"
fill="#000000" stroke="none">
<path d="M504 2865 c-4 -8 -3 -26 0 -40 6 -22 3 -25 -18 -25 -37 0 -56 -10
-56 -31 0 -13 -7 -19 -21 -19 -29 0 -59 -18 -59 -35 0 -21 45 -47 175 -101
142 -60 198 -88 215 -109 12 -15 10 -20 -18 -42 -18 -13 -32 -29 -32 -34 0 -5
36 -9 79 -9 43 0 116 -7 161 -16 45 -8 85 -12 88 -9 8 7 -39 192 -63 248 l-16
38 -37 -31 -36 -30 -56 54 c-87 84 -258 206 -289 206 -6 0 -14 -7 -17 -15z
m122 -64 c49 -32 123 -88 164 -124 41 -37 77 -67 80 -67 3 0 18 12 33 26 l27
25 16 -36 c17 -43 65 -217 60 -222 -2 -2 -15 1 -30 6 -14 6 -76 15 -138 22
-62 6 -114 12 -116 14 -2 2 10 11 27 21 17 10 31 21 31 24 0 13 -115 80 -187
110 -160 64 -184 76 -210 97 l-28 21 28 11 c16 6 39 8 53 5 24 -6 34 9 14 21
-23 14 -7 25 40 25 49 0 59 6 41 26 -5 5 -12 19 -16 32 -10 36 15 27 111 -37z"/>
<path d="M605 2636 c50 -24 106 -54 125 -66 l35 -22 -30 26 c-30 27 -149 87
-195 100 -14 4 16 -13 65 -38z"/>
<path d="M831 2456 c2 -2 31 -6 64 -9 38 -4 53 -3 40 3 -19 8 -113 14 -104 6z"/>
<path d="M40 2665 c-13 -14 -21 -27 -18 -30 2 -3 15 6 28 20 13 14 21 27 18
30 -2 3 -15 -6 -28 -20z"/>
<path d="M90 2575 c-13 -14 -19 -25 -14 -25 14 0 54 30 54 41 0 16 -16 10 -40
-16z"/>
<path d="M4420 2592 c0 -5 9 -17 20 -27 22 -20 26 -9 6 18 -14 18 -26 22 -26
9z"/>
<path d="M3548 2583 c-22 -5 -30 -30 -18 -53 8 -14 -3 -44 -47 -135 -42 -88
-54 -122 -46 -133 5 -9 41 -25 79 -37 79 -25 148 -58 250 -121 39 -24 75 -44
81 -44 13 0 23 24 67 170 24 79 42 119 56 128 24 14 26 35 5 52 -21 18 -55 3
-55 -25 0 -22 -29 -45 -138 -109 -12 -7 -13 6 -7 70 4 43 14 84 21 92 17 16
17 27 4 53 -21 39 -70 16 -70 -32 0 -21 -15 -41 -62 -83 -34 -31 -62 -55 -64
-53 -1 1 -9 42 -18 92 -14 81 -14 91 0 107 28 30 3 70 -38 61z m16 -155 c4
-29 9 -74 12 -100 3 -27 8 -48 11 -48 3 0 41 30 84 66 l79 66 -1 -44 c0 -23
-4 -64 -8 -90 -10 -62 1 -62 94 -4 38 25 71 43 72 42 4 -4 -67 -226 -73 -226
-2 0 -23 12 -47 27 -82 52 -167 93 -254 122 -48 17 -88 31 -87 33 6 24 99 208
105 208 4 0 10 -24 13 -52z"/>
<path d="M3725 2193 c17 -8 37 -22 46 -29 21 -18 43 -10 57 22 14 29 2 31 -23
5 -17 -20 -17 -20 -53 0 -20 10 -41 19 -47 19 -5 -1 4 -8 20 -17z"/>
<path d="M235 2560 c-10 -11 -13 -20 -8 -20 13 0 38 29 31 35 -3 3 -13 -4 -23
-15z"/>
<path d="M4280 2573 c0 -13 29 -38 35 -31 3 3 -4 13 -15 23 -11 10 -20 13 -20
8z"/>
<path d="M45 2435 c-17 -13 -28 -26 -25 -29 3 -3 19 6 35 19 17 13 28 26 25
29 -3 3 -19 -6 -35 -19z"/>
<path d="M200 2410 c-21 -11 -28 -19 -18 -20 22 0 68 21 68 32 0 12 -11 9 -50
-12z"/>
<path d="M4309 2410 c13 -11 33 -20 45 -20 18 0 16 3 -12 20 -42 26 -64 25
-33 0z"/>
<path d="M310 2365 l-25 -14 26 -1 c15 0 32 7 39 15 17 20 -5 20 -40 0z"/>
<path d="M4190 2372 c0 -11 24 -22 48 -22 21 0 5 15 -25 25 -13 3 -23 2 -23
-3z"/>
<path d="M23 2288 c-13 -6 -23 -15 -23 -20 0 -5 13 -2 30 7 45 23 38 35 -7 13z"/>
<path d="M166 2284 c-22 -8 -42 -17 -45 -20 -9 -10 73 6 83 17 17 16 2 17 -38
3z"/>
<path d="M4355 2275 c17 -8 39 -14 50 -14 15 1 13 4 -10 14 -16 8 -39 14 -50
14 -15 -1 -13 -4 10 -14z"/>
<path d="M265 2210 c-25 -6 -27 -8 -12 -15 22 -9 70 2 62 15 -7 11 -7 11 -50
0z"/>
<path d="M4229 2210 c-6 -4 -1 -10 13 -13 33 -9 58 -8 58 2 0 11 -56 20 -71
11z"/>
<path d="M23 2153 c-25 -5 -32 -23 -9 -23 22 0 46 11 46 21 0 5 -3 8 -7 8 -5
-1 -18 -4 -30 -6z"/>
<path d="M155 2100 c-28 -7 -27 -8 13 -9 23 0 42 4 42 9 0 11 -11 11 -55 0z"/>
<path d="M4330 2101 c0 -5 18 -11 40 -13 47 -4 54 7 9 16 -42 8 -49 8 -49 -3z"/>
<path d="M270 2030 c20 -13 40 -13 40 0 0 6 -12 10 -27 10 -22 0 -25 -2 -13
-10z"/>
<path d="M4230 2030 c0 -13 20 -13 40 0 12 8 9 10 -12 10 -16 0 -28 -4 -28
-10z"/>
<path d="M100 2005 c0 -10 63 -36 78 -33 10 2 -3 11 -30 20 -27 9 -48 15 -48
13z"/>
<path d="M4392 1993 c-24 -8 -41 -17 -38 -20 8 -9 64 8 77 23 6 8 10 14 8 13
-2 0 -23 -7 -47 -16z"/>
<path d="M539 1965 c-3 -3 14 -76 38 -163 23 -86 51 -187 60 -224 l17 -68 65
0 66 0 39 145 c21 80 41 144 43 141 7 -6 73 -254 73 -271 0 -12 15 -15 70 -15
l69 0 11 43 c6 23 32 116 57 207 65 236 65 210 -2 209 -67 -2 -61 8 -100 -169
-16 -69 -31 -128 -34 -132 -4 -4 -23 59 -44 140 -21 80 -40 149 -43 152 -3 2
-29 5 -57 5 -60 0 -55 9 -108 -188 -17 -65 -33 -116 -35 -114 -2 2 -19 71 -37
153 l-34 149 -54 3 c-30 2 -57 0 -60 -3z"/>
<path d="M1293 1964 c-10 -4 -13 -60 -13 -230 l0 -224 165 0 165 0 0 45 0 45
-105 0 -105 0 0 55 0 55 101 0 100 0 -3 43 -3 42 -97 3 -98 3 0 39 0 40 105 0
105 0 0 43 0 43 -152 2 c-84 0 -159 -1 -165 -4z"/>
<path d="M1715 1962 c-3 -3 -5 -106 -5 -229 l0 -223 165 0 165 0 0 46 0 45
-105 -3 -105 -3 -2 185 -3 185 -52 1 c-29 1 -55 -1 -58 -4z"/>
<path d="M2220 1955 c-118 -53 -166 -211 -102 -336 30 -59 71 -93 136 -110 50
-14 138 -7 189 14 36 15 37 18 37 66 0 28 -2 51 -4 51 -2 0 -24 -11 -47 -25
-110 -63 -219 -3 -219 119 0 47 27 112 53 129 53 34 127 28 180 -13 14 -11 28
-20 31 -20 3 0 6 24 6 53 0 49 -3 55 -27 67 -44 21 -191 24 -233 5z"/>
<path d="M2665 1946 c-35 -16 -58 -36 -77 -67 -34 -53 -42 -92 -35 -175 6 -77
36 -130 99 -171 37 -25 50 -28 127 -28 108 0 160 25 206 99 27 45 30 58 30
130 0 87 -19 139 -67 183 -62 58 -193 72 -283 29z m168 -67 c79 -36 88 -218
13 -273 -35 -27 -97 -27 -127 -1 -49 44 -63 139 -33 215 25 61 87 86 147 59z"/>
<path d="M3114 1961 c-2 -2 -4 -105 -4 -228 l0 -223 55 0 54 0 3 152 3 152 40
-94 41 -95 44 0 44 0 35 87 c20 48 39 88 44 88 4 0 7 -65 7 -145 l0 -145 55 0
55 0 0 228 0 227 -53 -1 c-28 0 -59 -1 -68 -2 -10 -1 -34 -44 -64 -112 -26
-61 -51 -107 -55 -103 -4 4 -27 51 -50 103 -23 52 -46 100 -51 105 -10 10
-126 15 -135 6z"/>
<path d="M3710 1740 l0 -230 165 0 165 0 0 46 0 45 -105 -2 c-58 -1 -105 1
-105 5 0 3 0 29 0 56 l0 50 95 0 95 0 0 45 0 45 -98 0 -98 0 4 40 4 40 105 0
104 0 -3 43 -3 42 -162 3 -163 2 0 -230z"/>
<path d="M1220 1940 c0 -5 5 -10 10 -10 6 0 10 5 10 10 0 6 -4 10 -10 10 -5 0
-10 -4 -10 -10z"/>
<path d="M5 1920 c3 -5 16 -10 28 -10 18 0 19 2 7 10 -20 13 -43 13 -35 0z"/>
<path d="M1220 1910 c-8 -5 -11 -12 -7 -16 4 -4 13 -2 19 4 6 6 10 14 7 16 -2
3 -11 1 -19 -4z"/>
<path d="M179 1830 c13 -11 28 -20 35 -20 6 1 0 10 -13 20 -13 11 -28 20 -35
20 -6 -1 0 -10 13 -20z"/>
<path d="M1205 1840 c-7 -12 2 -30 16 -30 12 0 12 27 0 35 -5 3 -12 1 -16 -5z"/>
<path d="M4346 1835 c-30 -23 -14 -27 19 -5 17 11 23 20 15 20 -8 -1 -24 -7
-34 -15z"/>
<path d="M60 1823 c0 -13 29 -38 35 -31 3 3 -4 13 -15 23 -11 10 -20 13 -20 8z"/>
<path d="M4445 1800 c-3 -5 -1 -10 4 -10 6 0 11 5 11 10 0 6 -2 10 -4 10 -3 0
-8 -4 -11 -10z"/>
<path d="M61 1695 c-1 -24 15 -52 24 -43 4 3 0 19 -9 35 -13 23 -15 24 -15 8z"/>
<path d="M1392 1450 c0 -19 2 -27 5 -17 2 9 2 25 0 35 -3 9 -5 1 -5 -18z"/>
<path d="M3161 1374 c0 -11 3 -14 6 -6 3 7 2 16 -1 19 -3 4 -6 -2 -5 -13z"/>
<path d="M3161 1314 c0 -11 3 -14 6 -6 3 7 2 16 -1 19 -3 4 -6 -2 -5 -13z"/>
<path d="M2037 1084 c6 -68 11 -77 12 -24 0 25 -3 51 -8 59 -5 8 -7 -5 -4 -35z"/>
<path d="M2866 954 c-4 -15 -2 -32 3 -37 6 -6 11 -27 11 -46 1 -32 24 -81 34
-70 4 4 -9 110 -20 157 -6 30 -20 28 -28 -4z"/>
<path d="M530 433 c0 -52 -9 -56 -106 -48 l-88 8 33 -42 33 -42 -25 -36 c-15
-21 -24 -39 -22 -41 2 -3 40 -4 83 -3 l79 1 7 -41 7 -41 51 52 c29 29 70 64
91 78 l40 26 -34 25 c-19 14 -58 49 -88 78 -30 29 -56 53 -58 53 -1 0 -3 -12
-3 -27z m133 -108 l28 -18 -27 -18 c-15 -9 -49 -38 -75 -64 -41 -39 -49 -44
-49 -27 0 47 -7 51 -86 45 -75 -6 -90 1 -59 27 21 17 19 42 -5 73 -11 14 -20
27 -20 29 0 1 38 2 85 0 l85 -3 0 32 0 32 48 -45 c26 -24 60 -53 75 -63z"/>
<path d="M595 264 c-19 -15 -22 -21 -9 -15 18 9 52 41 43 41 -2 0 -17 -12 -34
-26z"/>
<path d="M448 263 c12 -2 32 -2 45 0 12 2 2 4 -23 4 -25 0 -35 -2 -22 -4z"/>
<path d="M2775 402 c-33 -31 -73 -66 -89 -77 l-29 -21 39 -25 c22 -15 65 -50
97 -79 l57 -52 0 42 0 42 90 -7 c50 -4 90 -4 90 0 0 5 -11 23 -25 41 -14 18
-25 36 -25 41 0 5 13 25 30 44 16 20 27 38 25 41 -2 2 -30 1 -62 -3 -32 -4
-73 -8 -90 -8 -31 -1 -33 1 -33 33 0 19 -3 37 -8 40 -4 2 -34 -21 -67 -52z
m57 -14 c-4 -18 0 -19 82 -16 47 2 86 1 86 -1 0 -2 -9 -19 -21 -37 l-21 -34
23 -32 23 -31 -82 6 -82 6 0 -30 c0 -17 -3 -29 -8 -27 -4 2 -38 28 -75 58
l-67 55 32 25 c18 14 48 42 68 62 35 36 53 35 42 -4z"/>
<path d="M2746 282 c5 -4 22 -18 37 -32 20 -17 26 -19 22 -8 -4 9 -17 24 -30
32 -25 16 -47 22 -29 8z"/>
<path d="M2878 263 c12 -2 32 -2 45 0 12 2 2 4 -23 4 -25 0 -35 -2 -22 -4z"/>
</g>
</svg>
